<?xml version="1.0" standalone="no"?>
<!DOCTYPE svg PUBLIC "-//W3C//DTD SVG 20010904//EN"
 "http://www.w3.org/TR/2001/REC-SVG-20010904/DTD/svg10.dtd">
<svg version="1.0" xmlns="http://www.w3.org/2000/svg"
 width="1024.000000pt" height="1024.000000pt" viewBox="0 0 1024.000000 1024.000000"
 preserveAspectRatio="xMidYMid meet">

<g transform="translate(0.000000,1024.000000) scale(0.100000,-0.100000)"
fill="#000000" stroke="none">
<path d="M5000 8753 c-177 -11 -635 -94 -700 -128 -41 -21 -62 -52 -67 -98 -6
-54 15 -100 60 -127 43 -27 64 -25 251 14 89 19 211 42 273 50 321 45 745 24
1048 -50 426 -104 880 -323 1222 -590 115 -90 354 -323 461 -449 147 -175 334
-473 425 -680 165 -373 249 -717 277 -1135 23 -342 -23 -707 -140 -1096 -40
-132 -120 -339 -181 -469 -178 -379 -511 -776 -929 -1110 -37 -29 -73 -67 -80
-84 -18 -45 -5 -98 36 -139 32 -32 38 -34 89 -30 64 5 112 34 259 158 581 489
934 1050 1116 1775 76 306 105 570 97 908 -7 341 -43 579 -131 885 -161 556
-528 1143 -952 1523 -680 609 -1561 925 -2434 872z"/>
<path d="M5215 8203 c-463 -61 -862 -223 -1185 -481 -408 -327 -667 -708 -799
-1171 -54 -191 -59 -214 -76 -358 -70 -598 89 -1211 432 -1664 l83 -109 -103
-106 -102 -106 -40 23 c-48 29 -142 32 -190 7 -31 -16 -1211 -1223 -1304
-1333 -106 -125 -146 -247 -145 -440 0 -120 2 -137 33 -225 73 -213 195 -352
395 -450 110 -54 190 -73 311 -74 154 0 264 36 382 126 29 22 344 336 701 697
491 498 655 670 673 707 35 71 33 179 -3 250 l-26 51 113 113 114 113 103 -40
c170 -68 359 -117 571 -148 622 -91 1294 98 1803 508 146 118 333 330 461 522
232 348 373 830 373 1276 0 520 -198 1047 -552 1472 -204 245 -490 466 -793
613 -354 171 -631 235 -1005 232 -107 0 -208 -3 -225 -5z m530 -147 c285 -43
621 -185 934 -398 194 -132 398 -322 528 -494 65 -85 162 -253 184 -316 11
-33 11 -40 -6 -58 -42 -46 -130 -7 -203 90 -175 236 -314 393 -458 516 -207
177 -586 356 -886 418 -125 26 -363 38 -506 26 -468 -40 -916 -247 -1235 -572
-246 -251 -389 -479 -487 -775 -81 -249 -95 -332 -95 -588 0 -232 7 -297 52
-465 41 -157 124 -351 218 -516 40 -68 198 -276 268 -351 109 -117 272 -244
331 -259 54 -13 25 31 -104 156 -82 80 -130 133 -130 146 0 11 11 31 24 43 33
31 59 23 122 -34 179 -163 429 -296 700 -370 208 -57 296 -68 522 -62 323 9
438 31 659 127 231 101 399 215 564 384 240 246 387 520 455 845 69 336 55
596 -50 928 -4 12 -2 20 6 20 31 1 154 16 159 19 15 9 44 -95 85 -301 13 -68
16 -406 4 -502 -42 -340 -142 -613 -311 -850 l-69 -97 21 -22 c13 -14 23 -41
26 -68 5 -38 0 -58 -25 -109 -17 -34 -44 -75 -60 -91 l-30 -28 -7 34 c-10 51
-25 76 -51 82 -36 9 -68 -8 -149 -83 -101 -94 -236 -187 -381 -262 -65 -34
-133 -73 -151 -86 -55 -40 -64 -121 -19 -165 14 -14 8 -18 -57 -43 -201 -74
-414 -108 -677 -109 -347 0 -666 74 -988 229 -278 134 -490 307 -697 568 -253
318 -416 701 -461 1082 -4 36 -13 65 -23 71 -13 10 -15 42 -15 215 0 184 3
217 28 338 104 509 357 930 761 1269 269 226 607 383 982 457 185 36 492 41
698 11z m-71 -721 c142 -19 264 -58 421 -136 412 -203 696 -585 783 -1054 24
-133 21 -369 -7 -502 -62 -299 -194 -548 -396 -749 -373 -371 -942 -502 -1447
-334 -111 37 -282 124 -378 191 -41 29 -125 102 -185 163 -205 206 -332 439
-392 716 -25 117 -25 406 0 537 53 284 202 568 402 768 194 194 496 354 746
395 41 6 81 13 89 15 46 9 265 3 364 -10z m-1835 -3129 c54 -55 78 -85 70 -89
-14 -5 13 -37 153 -181 39 -40 55 -63 50 -72 -11 -19 -324 -334 -332 -334 -4
0 -94 88 -199 196 l-193 195 118 122 c183 190 239 246 244 246 3 1 43 -37 89
-83z m-433 -610 l212 -214 -316 -324 c-174 -178 -469 -477 -656 -665 l-339
-342 -56 44 c-81 62 -129 118 -165 194 -29 62 -31 73 -31 181 1 167 17 202
159 350 249 260 968 990 974 990 4 0 102 -96 218 -214z"/>
<path d="M5280 7075 c-119 -27 -197 -55 -297 -105 -269 -135 -472 -367 -577
-658 -86 -240 -89 -532 -9 -755 151 -420 503 -720 926 -787 97 -16 286 -8 386
15 145 34 339 128 469 229 68 52 186 175 230 238 197 286 257 713 147 1038
-128 377 -439 667 -823 767 -124 32 -350 41 -452 18z m277 -130 c31 -21 53
-66 60 -124 5 -47 7 -49 42 -55 55 -9 157 -61 226 -116 69 -55 147 -161 166
-227 24 -84 -17 -163 -95 -177 -49 -9 -69 4 -141 94 -83 105 -119 135 -182
154 -22 7 -23 5 -23 -44 0 -30 -7 -64 -16 -80 -41 -68 -130 -78 -187 -21 -26
25 -31 40 -35 89 l-4 60 -28 -8 c-111 -32 -154 -135 -97 -232 50 -86 107 -115
350 -179 179 -47 262 -88 349 -172 78 -76 114 -148 130 -256 20 -147 -30 -291
-142 -401 -73 -72 -165 -124 -255 -143 l-55 -11 0 -41 c0 -101 -47 -165 -121
-165 -48 0 -94 22 -111 53 -7 12 -15 51 -18 86 l-5 63 -75 22 c-111 32 -196
82 -276 161 -117 116 -151 219 -102 306 12 22 36 45 56 55 54 25 100 7 159
-63 76 -90 130 -141 173 -163 65 -33 70 -30 70 50 0 63 3 72 31 104 37 43 81
54 132 32 52 -21 78 -68 75 -135 -2 -67 7 -72 67 -37 115 68 137 186 52 282
-44 51 -111 81 -266 120 -289 74 -400 145 -479 312 -36 74 -37 81 -37 187 0
103 2 114 32 178 62 131 182 229 326 266 l62 16 5 57 c10 106 103 157 187 103z"/>
<path d="M2369 2671 c-26 -26 -29 -36 -29 -91 0 -95 26 -129 98 -130 115 -1
157 127 71 216 -44 46 -97 47 -140 5z"/>
<path d="M3634 8171 c-84 -52 -46 -181 54 -181 60 0 106 72 82 129 -26 63 -84
85 -136 52z"/>
<path d="M2613 8040 c-43 -26 -53 -67 -53 -225 0 -105 4 -138 19 -171 33 -73
123 -85 175 -23 26 30 26 33 26 198 0 182 -4 197 -60 226 -39 20 -69 19 -107
-5z"/>
<path d="M2022 7534 c-27 -19 -52 -65 -52 -97 0 -37 41 -91 80 -104 20 -7 93
-12 169 -12 115 -1 141 2 176 19 74 36 89 118 31 176 l-34 34 -174 0 c-141 0
-178 -3 -196 -16z"/>
<path d="M2914 7541 c-84 -36 -83 -171 1 -207 54 -22 182 -19 223 6 66 40 74
127 16 181 -23 22 -35 24 -122 26 -53 2 -107 -1 -118 -6z"/>
<path d="M2623 7270 c-39 -16 -57 -66 -61 -178 -6 -144 2 -188 43 -229 27 -27
41 -33 75 -33 34 0 47 6 70 30 28 30 29 33 32 165 4 157 -1 189 -34 222 -28
27 -89 39 -125 23z"/>
<path d="M2515 6387 c-56 -56 -59 -130 -7 -182 68 -68 166 -54 206 29 28 60
21 103 -23 147 -35 35 -44 39 -91 39 -46 0 -56 -4 -85 -33z"/>
<path d="M1883 6210 c-43 -26 -58 -58 -93 -201 -182 -747 -44 -1666 352 -2346
40 -68 74 -123 78 -123 3 0 48 42 99 94 l94 94 -51 88 c-154 269 -300 700
-347 1027 -53 370 -43 752 30 1096 29 137 31 192 8 232 -33 56 -112 75 -170
39z"/>
<path d="M2428 5620 c-14 -11 -33 -37 -41 -58 -61 -152 159 -257 233 -112 24
47 25 69 6 115 -29 69 -141 100 -198 55z"/>
<path d="M2435 5061 c-40 -24 -71 -60 -84 -94 -28 -72 0 -165 61 -209 48 -34
150 -33 200 2 76 51 95 144 48 230 -44 79 -156 114 -225 71z"/>
<path d="M2445 4666 c-82 -37 -126 -147 -91 -229 40 -93 158 -135 245 -86 124
69 117 251 -13 310 -48 22 -99 24 -141 5z"/>
<path d="M7305 3946 c-43 -19 -65 -57 -65 -112 0 -39 5 -51 34 -80 38 -38 77
-44 126 -19 79 41 79 169 0 210 -35 18 -55 18 -95 1z"/>
<path d="M6860 3553 c-28 -10 -70 -56 -81 -90 -21 -64 28 -145 96 -157 73 -14
145 48 145 124 0 83 -86 150 -160 123z"/>
<path d="M6265 3268 c-54 -42 -69 -119 -35 -175 54 -90 177 -94 230 -8 39 63
14 157 -50 190 -43 22 -112 19 -145 -7z"/>
<path d="M5315 3224 c-16 -8 -38 -23 -49 -32 -27 -25 -56 -91 -56 -132 0 -41
29 -108 56 -132 30 -26 89 -48 131 -48 119 1 201 147 144 258 -46 90 -146 128
-226 86z"/>
<path d="M4676 2809 c-62 -17 -97 -82 -76 -144 16 -48 53 -75 104 -75 67 1
106 45 106 119 0 69 -66 119 -134 100z"/>
<path d="M5320 2813 c-92 -35 -136 -153 -90 -243 45 -89 152 -125 239 -81 92
48 124 178 63 260 -36 49 -80 71 -141 70 -31 0 -63 -3 -71 -6z"/>
<path d="M6387 2570 c-192 -88 -427 -155 -743 -212 -175 -32 -186 -32 -469
-33 -225 0 -318 4 -415 18 -285 41 -622 124 -759 188 l-65 30 -98 -98 c-54
-54 -98 -101 -98 -106 0 -33 456 -178 730 -232 255 -49 366 -59 675 -59 302
-1 437 10 675 55 354 67 781 222 830 301 54 89 -11 199 -117 198 -23 -1 -79
-20 -146 -50z"/>
<path d="M7330 2463 c-63 -32 -87 -118 -54 -189 30 -62 109 -82 171 -44 56 34
75 100 48 167 -28 70 -100 99 -165 66z"/>
<path d="M7023 2163 c-36 -7 -83 -68 -83 -109 0 -70 41 -114 121 -129 122 -23
210 91 149 190 -30 48 -98 65 -187 48z"/>
<path d="M7603 2156 c-39 -18 -73 -70 -73 -111 0 -67 65 -125 142 -125 45 0
110 34 131 69 28 47 22 96 -16 137 -29 31 -39 36 -92 40 -40 3 -71 0 -92 -10z"/>
</g>
</svg>
